<?xml version="1.0" encoding="UTF-8" standalone="no"?>
<svg
   xmlns:dc="http://purl.org/dc/elements/1.1/"
   xmlns:cc="http://creativecommons.org/ns#"
   xmlns:rdf="http://www.w3.org/1999/02/22-rdf-syntax-ns#"
   xmlns:svg="http://www.w3.org/2000/svg"
   xmlns="http://www.w3.org/2000/svg"
   xmlns:sodipodi="http://sodipodi.sourceforge.net/DTD/sodipodi-0.dtd"
   xmlns:inkscape="http://www.inkscape.org/namespaces/inkscape"
   viewBox="0 0 21 21"
   version="1.1"
   id="svg38"
   sodipodi:docname="pause.svg"
   inkscape:version="0.92.4 (5da689c313, 2019-01-14)">
  <metadata
     id="metadata42">
    <rdf:RDF>
      <cc:Work
         rdf:about="">
        <dc:format>image/svg+xml</dc:format>
        <dc:type
           rdf:resource="http://purl.org/dc/dcmitype/StillImage" />
        <dc:title></dc:title>
      </cc:Work>
    </rdf:RDF>
  </metadata>
  <sodipodi:namedview
     pagecolor="#ffffff"
     bordercolor="#666666"
     borderopacity="1"
     objecttolerance="10"
     gridtolerance="10"
     guidetolerance="10"
     inkscape:pageopacity="0"
     inkscape:pageshadow="2"
     inkscape:window-width="2086"
     inkscape:window-height="1219"
     id="namedview40"
     showgrid="false"
     inkscape:zoom="50"
     inkscape:cx="10.5"
     inkscape:cy="10.5"
     inkscape:window-x="1051"
     inkscape:window-y="28"
     inkscape:window-maximized="0"
     inkscape:current-layer="svg38" />
  <defs
     id="defs29">
    <style
       id="style27">
      .cls-1 {
        fill: none;
      }

      .cls-2 {
        fill: #1d1d1d;
      }
    </style>
  </defs>
  <g
     id="Group_3"
     data-name="Group 3"
     transform="matrix(0.87142857,0,0,0.87142857,-430.00714,-293.19286)">
    <rect
       id="Rectangle_5"
       data-name="Rectangle 5"
       class="cls-1"
       width="21"
       height="21"
       transform="translate(495,338)"
       x="0"
       y="0"
       style="fill:none" />
    <g
       id="pause"
       transform="translate(454.033,338)">
      <g
         id="Group_1"
         data-name="Group 1"
         transform="translate(42.667)">
        <path
           id="Path_1"
           data-name="Path 1"
           class="cls-2"
           d="m 48.084,0 h -4.167 a 1.284,1.284 0 0 0 -1.25,1.312 V 19.688 A 1.284,1.284 0 0 0 43.917,21 h 4.167 a 1.284,1.284 0 0 0 1.25,-1.312 V 1.313 A 1.284,1.284 0 0 0 48.084,0 Z"
           transform="translate(-42.667)"
           inkscape:connector-curvature="0"
           style="fill:#1d1d1d" />
      </g>
      <g
         id="Group_2"
         data-name="Group 2"
         transform="translate(53.5)">
        <path
           id="Path_2"
           data-name="Path 2"
           class="cls-2"
           d="m 304.084,0 h -4.167 a 1.284,1.284 0 0 0 -1.25,1.312 v 18.376 a 1.284,1.284 0 0 0 1.25,1.312 h 4.167 a 1.284,1.284 0 0 0 1.25,-1.312 V 1.313 A 1.284,1.284 0 0 0 304.084,0 Z"
           transform="translate(-298.667)"
           inkscape:connector-curvature="0"
           style="fill:#1d1d1d" />
      </g>
    </g>
  </g>
</svg>
