<?xml version="1.0" encoding="UTF-8" standalone="no"?>
<svg
   xmlns:dc="http://purl.org/dc/elements/1.1/"
   xmlns:cc="http://creativecommons.org/ns#"
   xmlns:rdf="http://www.w3.org/1999/02/22-rdf-syntax-ns#"
   xmlns:svg="http://www.w3.org/2000/svg"
   xmlns="http://www.w3.org/2000/svg"
   xmlns:sodipodi="http://sodipodi.sourceforge.net/DTD/sodipodi-0.dtd"
   xmlns:inkscape="http://www.inkscape.org/namespaces/inkscape"
   viewBox="0 0 21 21"
   version="1.1"
   id="svg11"
   sodipodi:docname="playnext.svg"
   inkscape:version="0.92.4 (5da689c313, 2019-01-14)">
  <metadata
     id="metadata17">
    <rdf:RDF>
      <cc:Work
         rdf:about="">
        <dc:format>image/svg+xml</dc:format>
        <dc:type
           rdf:resource="http://purl.org/dc/dcmitype/StillImage" />
        <dc:title></dc:title>
      </cc:Work>
    </rdf:RDF>
  </metadata>
  <defs
     id="defs15" />
  <sodipodi:namedview
     pagecolor="#ffffff"
     bordercolor="#666666"
     borderopacity="1"
     objecttolerance="10"
     gridtolerance="10"
     guidetolerance="10"
     inkscape:pageopacity="0"
     inkscape:pageshadow="2"
     inkscape:window-width="1878"
     inkscape:window-height="1242"
     id="namedview13"
     showgrid="false"
     inkscape:zoom="51.095238"
     inkscape:cx="10.5"
     inkscape:cy="10.5"
     inkscape:window-x="490"
     inkscape:window-y="65"
     inkscape:window-maximized="1"
     inkscape:current-layer="svg11" />
  <path
     style="fill:#000000;stroke-width:0.68759942"
     d="M 0.7578125 4.1347656 A 0.77677108 0.62459252 0 0 0 0.38867188 4.21875 A 0.77753779 0.6252091 0 0 0 0 4.7597656 L 0 15.585938 A 0.77753779 0.6252091 0 0 0 1.1660156 16.126953 L 10.177734 10.861328 L 10.177734 15.605469 A 0.77753779 0.6252091 0 0 0 11.34375 16.146484 L 20.607422 10.732422 A 0.77677108 0.62459252 0 0 0 20.607422 9.6503906 L 11.34375 4.2382812 A 0.77677108 0.62459252 0 0 0 10.566406 4.2382812 A 0.77753779 0.6252091 0 0 0 10.177734 4.7792969 L 10.177734 9.4824219 L 1.1660156 4.21875 A 0.77677108 0.62459252 0 0 0 0.7578125 4.1347656 z "
     id="use17" />
</svg>
