<?xml version="1.0" encoding="UTF-8" standalone="no"?>
<svg
   xmlns:dc="http://purl.org/dc/elements/1.1/"
   xmlns:cc="http://creativecommons.org/ns#"
   xmlns:rdf="http://www.w3.org/1999/02/22-rdf-syntax-ns#"
   xmlns:svg="http://www.w3.org/2000/svg"
   xmlns="http://www.w3.org/2000/svg"
   xmlns:sodipodi="http://sodipodi.sourceforge.net/DTD/sodipodi-0.dtd"
   xmlns:inkscape="http://www.inkscape.org/namespaces/inkscape"
   viewBox="0 0 21 21"
   version="1.1"
   id="svg11"
   sodipodi:docname="playprevious.svg"
   inkscape:version="0.92.4 (5da689c313, 2019-01-14)">
  <metadata
     id="metadata17">
    <rdf:RDF>
      <cc:Work
         rdf:about="">
        <dc:format>image/svg+xml</dc:format>
        <dc:type
           rdf:resource="http://purl.org/dc/dcmitype/StillImage" />
        <dc:title></dc:title>
      </cc:Work>
    </rdf:RDF>
  </metadata>
  <defs
     id="defs15" />
  <sodipodi:namedview
     pagecolor="#ffffff"
     bordercolor="#666666"
     borderopacity="1"
     objecttolerance="10"
     gridtolerance="10"
     guidetolerance="10"
     inkscape:pageopacity="0"
     inkscape:pageshadow="2"
     inkscape:window-width="1878"
     inkscape:window-height="1242"
     id="namedview13"
     showgrid="false"
     inkscape:zoom="51.095238"
     inkscape:cx="10.5"
     inkscape:cy="10.5"
     inkscape:window-x="490"
     inkscape:window-y="65"
     inkscape:window-maximized="1"
     inkscape:current-layer="svg11" />
  <path
     style="fill:#000000;stroke-width:0.68759942"
     d="m 20.238216,4.1347656 a 0.77677108,0.62459252 0 0 1 0.369141,0.083984 0.77753779,0.6252091 0 0 1 0.388672,0.5410156 V 15.585938 a 0.77753779,0.6252091 0 0 1 -1.166016,0.541015 l -9.011718,-5.265625 v 4.744141 A 0.77753779,0.6252091 0 0 1 9.6522789,16.146484 L 0.38860687,10.732422 a 0.77677108,0.62459252 0 0 1 0,-1.0820314 L 9.6522789,4.2382812 a 0.77677108,0.62459252 0 0 1 0.7773441,0 0.77753779,0.6252091 0 0 1 0.388672,0.5410157 v 4.703125 L 19.830013,4.21875 a 0.77677108,0.62459252 0 0 1 0.408203,-0.083984 z"
     id="use17"
     inkscape:connector-curvature="0" />
</svg>
